# xmcd
#
# Track frame offsets: 
#        150
#        3514
#        27887
#        29274
#        49898
#        70071
#        90604
#        111177
#        130291
#        146171
#        168190
#        197110
#        233200
#
# Disc length: 3264 seconds
#
# Revision: 0
# Processed by: cddbd v1.5.2PL0 Copyright (c) Steve Scherf et al.
# Submitted via: ExactAudioCopyFreeDBPlugin 1.0
#
DISCID=af0cbe0d
DTITLE=Martin Sexton - Live At The Fillmore
DYEAR=2012
DGENRE=Blues
TTITLE0=Intro
TTITLE1=Candy
TTITLE2=Serenity Prayer
TTITLE3=Diner
TTITLE4=Happy
TTITLE5=Failure
TTITLE6=Thought I Knew Ya
TTITLE7=Angeline
TTITLE8=Elephant's Memory Reprise
TTITLE9=A Day In The Life
TTITLE10=Glory Bound
TTITLE11=Purple Rain
TTITLE12=America
EXTD=
EXTT0=
EXTT1=
EXTT2=
EXTT3=
EXTT4=
EXTT5=
EXTT6=
EXTT7=
EXTT8=
EXTT9=
EXTT10=
EXTT11=
EXTT12=
PLAYORDER=
